<svg width="10" height="14" viewBox="0 0 10 14" fill="none" xmlns="http://www.w3.org/2000/svg">
<path d="M0.413352 13.75V12.0369L4.9581 7.58168C5.39276 7.14276 5.75497 6.75284 6.04474 6.41193C6.33452 6.07102 6.55185 5.74077 6.69673 5.42116C6.84162 5.10156 6.91406 4.76065 6.91406 4.39844C6.91406 3.98508 6.82031 3.63139 6.63281 3.33736C6.44531 3.03906 6.1875 2.80895 5.85938 2.64702C5.53125 2.48508 5.15838 2.40412 4.74077 2.40412C4.31037 2.40412 3.93324 2.49361 3.60938 2.67259C3.28551 2.8473 3.03409 3.09659 2.85511 3.42045C2.6804 3.74432 2.59304 4.12997 2.59304 4.57741H0.336648C0.336648 3.74645 0.526278 3.02415 0.90554 2.41051C1.2848 1.79687 1.80682 1.32173 2.47159 0.985085C3.14063 0.648437 3.90767 0.480113 4.77273 0.480113C5.65057 0.480113 6.42188 0.644176 7.08665 0.972301C7.75142 1.30043 8.26705 1.75 8.63352 2.32102C9.00426 2.89204 9.18963 3.54403 9.18963 4.27699C9.18963 4.76705 9.09588 5.24858 8.90838 5.72159C8.72088 6.1946 8.39063 6.71875 7.91761 7.29403C7.44886 7.86932 6.79048 8.56605 5.94247 9.38423L3.68608 11.679V11.7685H9.38778V13.75H0.413352Z" fill="#2C2C2C"/>
</svg>
