<svg width="10" height="14" viewBox="0 0 10 14" fill="none" xmlns="http://www.w3.org/2000/svg">
<path d="M5.11151 13.679C4.19105 13.679 3.37287 13.5213 2.65696 13.206C1.94531 12.8906 1.38281 12.4517 0.96946 11.8892C0.556108 11.3267 0.336648 10.6768 0.31108 9.93963H2.71449C2.7358 10.2933 2.85298 10.6023 3.06605 10.8665C3.27912 11.1264 3.5625 11.3288 3.91619 11.4737C4.26989 11.6186 4.66619 11.6911 5.10511 11.6911C5.57386 11.6911 5.98935 11.6101 6.35156 11.4482C6.71378 11.282 6.99716 11.0518 7.2017 10.7578C7.40625 10.4638 7.50639 10.125 7.50213 9.74148C7.50639 9.34517 7.40412 8.99574 7.19531 8.69318C6.98651 8.39062 6.68395 8.15412 6.28764 7.98366C5.8956 7.81321 5.42259 7.72798 4.86861 7.72798H3.71165V5.89986H4.86861C5.32457 5.89986 5.72301 5.82102 6.06392 5.66335C6.40909 5.50568 6.67969 5.28409 6.87571 4.99858C7.07173 4.70881 7.16761 4.37429 7.16335 3.99503C7.16761 3.62429 7.08452 3.30256 6.91406 3.02983C6.74787 2.75284 6.51136 2.53764 6.20455 2.38423C5.90199 2.23082 5.54617 2.15412 5.13707 2.15412C4.73651 2.15412 4.36577 2.22656 4.02486 2.37145C3.68395 2.51633 3.40909 2.72301 3.20028 2.99148C2.99148 3.25568 2.88068 3.57102 2.8679 3.9375H0.585938C0.602983 3.20455 0.81392 2.56108 1.21875 2.0071C1.62784 1.44886 2.1733 1.0142 2.85511 0.703125C3.53693 0.387784 4.30185 0.230113 5.14986 0.230113C6.02344 0.230113 6.78196 0.394176 7.42543 0.722301C8.07315 1.04616 8.57386 1.48295 8.92756 2.03267C9.28125 2.58239 9.4581 3.18963 9.4581 3.8544C9.46236 4.59162 9.24503 5.20952 8.80611 5.7081C8.37145 6.20668 7.80043 6.53267 7.09304 6.68608V6.78835C8.01349 6.91619 8.71875 7.2571 9.20881 7.81108C9.70313 8.3608 9.94815 9.04474 9.94389 9.86293C9.94389 10.5959 9.73509 11.2521 9.31747 11.8317C8.90412 12.407 8.3331 12.8587 7.6044 13.1868C6.87997 13.5149 6.04901 13.679 5.11151 13.679Z" fill="#2C2C2C"/>
</svg>
